# xmcd CD database file
#
# Track frame offsets:
#	150
#	16182
#	35454
#	46822
#	61210
#	79245
#	90809
#	104699
#	121290
#	131886
#	144529
#
# Disc length: 2129 seconds
#
# Revision: 0
# Processed by: cddbd v1.5.2PL0 Copyright (c) Steve Scherf et al.
# Submitted via: CDex 1.51
#
DISCID=8b084f0b
DTITLE=Amy Winehouse - Back to Black
DYEAR=2007
DGENRE=Blues
TTITLE0=Rehab
TTITLE1=You Know I'm No Good
TTITLE2=Me and Mr Jones
TTITLE3=Just Friends
TTITLE4=Back To Black
TTITLE5=Love Is A Losing Game
TTITLE6=Tears Dry On Their Own
TTITLE7=Wake Up Alone
TTITLE8=Some Unholy War
TTITLE9=He Can Only Hold Her
TTITLE10=You Know I'm No Good (Ghostface (UK version))
EXTD=YEAR: 2007
EXTT0=
EXTT1=
EXTT2=
EXTT3=
EXTT4=
EXTT5=
EXTT6=
EXTT7=
EXTT8=
EXTT9=
EXTT10=
PLAYORDER=
